<?xml version="1.0" standalone="no"?><!DOCTYPE svg PUBLIC "-//W3C//DTD SVG 1.1//EN" "http://www.w3.org/Graphics/SVG/1.1/DTD/svg11.dtd"><svg t="1743208202668" class="icon" viewBox="0 0 1467 1024" version="1.1" xmlns="http://www.w3.org/2000/svg" p-id="1222" xmlns:xlink="http://www.w3.org/1999/xlink" width="286.5234375" height="200"><path d="M299.144533 18.466133l917.162667 917.162667a34.133333 34.133333 0 0 1-48.264533 48.264533L250.88 66.730667A34.133333 34.133333 0 1 1 299.144533 18.466133z m25.429334 170.257067l50.619733 50.619733a918.084267 918.084267 0 0 0-113.8688 67.4816 829.3376 829.3376 0 0 0-93.115733 75.1616l-14.097067 13.550934c-4.539733 4.471467-8.9088 8.874667-13.1072 13.312l-12.049067 12.9024A438.272 438.272 0 0 0 99.669333 457.386667l-7.304533 10.581333c-10.001067 15.223467-15.530667 27.648-15.872 35.908267-0.6144 15.394133 23.2448 51.370667 64.068267 93.252266l12.731733 12.765867c28.672 27.921067 64.170667 57.7536 104.448 85.469867 140.219733 96.494933 308.736 155.648 475.886933 155.648 75.093333 0 150.016-10.990933 222.071467-31.197867l54.6816 54.715733c-85.265067 27.716267-178.756267 44.7488-276.753067 44.7488-256.580267 0-483.84-126.2592-612.932266-246.033066l-13.2096-12.561067c-12.868267-12.561067-24.610133-24.951467-35.157334-37.102933l-10.1376-12.049067a468.3776 468.3776 0 0 1-4.778666-5.9392l-8.9088-11.707733C21.6064 557.294933 7.338667 524.731733 8.2944 501.179733c0.853333-21.538133 13.789867-50.653867 37.000533-83.524266l8.635734-11.741867 9.454933-12.049067 5.051733-6.075733 10.683734-12.3904 5.632-6.2464 11.8784-12.629333 12.629333-12.765867c4.369067-4.3008 8.840533-8.567467 13.4144-12.868267l14.1312-12.9024c12.0832-10.786133 24.917333-21.572267 38.434133-32.290133l16.5888-12.8a976.0768 976.0768 0 0 1 132.744534-84.1728z m409.053866-105.6768c400.5888 0 725.333333 284.842667 725.333334 418.133333 0 42.427733-32.904533 100.181333-90.624 159.197867l-12.765867 12.663467-6.656 6.3488-13.858133 12.663466c-4.7104 4.232533-9.557333 8.430933-14.574934 12.629334l-15.2576 12.561066c-5.2224 4.164267-10.513067 8.328533-15.9744 12.458667l-16.622933 12.356267a929.3824 929.3824 0 0 1-125.474133 76.117333l-50.9952-50.926933a880.469333 880.469333 0 0 0 112.366933-63.761067c58.231467-38.980267 106.939733-82.295467 140.288-123.630933 28.0576-34.679467 41.8816-64.1024 41.8816-78.677334 0-14.574933-13.824-43.963733-41.847467-78.677333-33.3824-41.301333-82.090667-84.650667-140.322133-123.630933-136.874667-91.613867-305.4592-147.5584-474.897067-147.5584-74.308267 0-148.48 11.6736-220.228266 33.1776l-54.135467-54.203734c84.445867-29.0816 177.0496-47.240533 274.363733-47.240533z m-196.949333 317.781333l52.0192 52.0192a152.6784 152.6784 0 0 0 193.194667 193.194667l52.0192 52.053333a220.945067 220.945067 0 0 1-297.233067-297.301333z m196.9152-120.593066a220.945067 220.945067 0 0 1 196.9152 321.297066L878.455467 549.546667a152.6784 152.6784 0 0 0-193.2288-193.2288L633.173333 304.298667a220.023467 220.023467 0 0 1 100.386134-24.064z" fill="#3586FF" p-id="1223"></path></svg>