<?xml version="1.0" standalone="no"?><!DOCTYPE svg PUBLIC "-//W3C//DTD SVG 1.1//EN" "http://www.w3.org/Graphics/SVG/1.1/DTD/svg11.dtd"><svg t="1743171216810" class="icon" viewBox="0 0 1024 1024" version="1.1" xmlns="http://www.w3.org/2000/svg" p-id="959" xmlns:xlink="http://www.w3.org/1999/xlink" width="200" height="200"><path d="M105.770667 771.84c-3.626667 23.338667 15.786667 42.538667 39.381333 42.538667h462.293333c23.552 0 43.008-19.2 39.381334-42.496a273.92 273.92 0 0 0-541.056 0z" fill="#1971FD" p-id="960"></path><path d="M234.24 354.730667a145.109333 145.109333 0 1 0 290.218667 0 145.109333 145.109333 0 1 0-290.218667 0Z" fill="#1971FD" p-id="961"></path><path d="M548.352 427.221333a122.24 122.24 0 0 0 0-144.981333 8.533333 8.533333 0 0 1 0.426667-10.922667 122.24 122.24 0 1 1 0 166.826667 8.533333 8.533333 0 0 1-0.426667-10.922667M700.330667 766.72h128.725333c23.893333 0 43.52-20.053333 38.826667-43.52a248.618667 248.618667 0 0 0-310.357334-190.677333c-7.253333 2.048-8.192 11.861333-1.706666 15.616a248.661333 248.661333 0 0 1 123.221333 197.845333v0.213333a21.632 21.632 0 0 0 21.333333 20.48" fill="#B3CDFF" p-id="962"></path></svg>