<?xml version="1.0" standalone="no"?><!DOCTYPE svg PUBLIC "-//W3C//DTD SVG 1.1//EN" "http://www.w3.org/Graphics/SVG/1.1/DTD/svg11.dtd"><svg t="1743208198047" class="icon" viewBox="0 0 1732 1024" version="1.1" xmlns="http://www.w3.org/2000/svg" p-id="1063" xmlns:xlink="http://www.w3.org/1999/xlink" width="338.28125" height="200"><path d="M872.802462 34.461538c462.217846 0 836.923077 328.704 836.923076 482.461539 0 48.955077-37.927385 115.593846-104.526769 183.689846l-14.729846 14.611692-7.68 7.325539-15.990154 14.611692c-5.474462 4.883692-11.067077 9.728-16.817231 14.572308l-17.604923 14.493538c-6.025846 4.804923-12.169846 9.609846-18.432 14.375385l-19.180307 14.257231c-153.206154 110.788923-375.059692 204.524308-621.961846 204.524307-296.014769 0-558.237538-145.683692-707.190154-283.884307l-15.281231-14.493539c-14.808615-14.493538-28.356923-28.790154-40.566154-42.811077l-11.657846-13.902769a540.435692 540.435692 0 0 1-5.513846-6.852923l-10.279385-13.508923C51.2 581.710769 34.816 544.098462 35.84 516.923077c1.024-24.851692 15.950769-58.446769 42.732308-96.374154l9.964307-13.548308 10.909539-13.863384c1.890462-2.363077 3.820308-4.726154 5.828923-7.089231l12.327385-14.257231 6.498461-7.207384 13.705846-14.572308 14.572308-14.729846c5.041231-4.923077 10.161231-9.885538 15.478154-14.848l16.305231-14.887385c13.942154-12.445538 28.750769-24.891077 44.347076-37.257846l19.101539-14.769231c152.812308-115.396923 375.453538-219.057231 625.152-219.057231z m0 78.769231c-192.433231 0-384.236308 67.899077-544.925539 179.436308a956.967385 956.967385 0 0 0-107.441231 86.724923l-16.265846 15.635692c-5.238154 5.159385-10.279385 10.279385-15.123692 15.36l-13.902769 14.887385a505.698462 505.698462 0 0 0-33.792 41.196308l-8.428308 12.169846c-11.539692 17.565538-17.959385 31.940923-18.353231 41.472-0.669538 17.723077 26.860308 59.234462 73.964308 107.598769l14.690461 14.690462c33.083077 32.216615 74.043077 66.638769 120.516923 98.619076 161.792 111.340308 356.233846 179.593846 549.060924 179.593847 195.544615 0 390.104615-64.512 547.997538-170.220308 67.190154-45.016615 123.392-94.995692 161.870769-142.690462 32.334769-40.014769 48.285538-73.964308 48.285539-90.781538 0-16.817231-15.950769-50.727385-48.246154-90.781539-38.518154-47.655385-94.72-97.673846-161.910154-142.651076-157.932308-105.708308-352.452923-170.259692-547.997538-170.259693z m0 148.755693a254.936615 254.936615 0 1 1 0 509.912615 254.936615 254.936615 0 0 1 0-509.912615z m0 78.76923a176.167385 176.167385 0 1 0 0 352.374154 176.167385 176.167385 0 0 0 0-352.374154z" fill="#3586FF" p-id="1064"></path></svg>