<?xml version="1.0" standalone="no"?><!DOCTYPE svg PUBLIC "-//W3C//DTD SVG 1.1//EN" "http://www.w3.org/Graphics/SVG/1.1/DTD/svg11.dtd"><svg t="1743171258001" class="icon" viewBox="0 0 1024 1024" version="1.1" xmlns="http://www.w3.org/2000/svg" p-id="1418" xmlns:xlink="http://www.w3.org/1999/xlink" width="200" height="200"><path d="M65.109333 65.109333m0 0l893.781334 0q0 0 0 0l0 893.781334q0 0 0 0l-893.781334 0q0 0 0 0l0-893.781334q0 0 0 0Z" fill="#FFFFFF" fill-opacity=".01" p-id="1419"></path><path d="M679.594667 772.693333h-140.8a64 64 0 0 1-64-64v-84.949333h260.650666v-148.992h84.949334a64 64 0 0 1 64 64v169.941333a64 64 0 0 1-64 64h-29.098667l-55.850667 55.893334-55.893333-55.893334z" fill="#B3CDFF" p-id="1420"></path><path d="M195.157333 199.168h499.626667a85.333333 85.333333 0 0 1 85.333333 85.333333v327.296a85.333333 85.333333 0 0 1-85.333333 85.333334H382.122667l-68.053334 67.413333a22.357333 22.357333 0 0 1-31.445333 0l-68.096-67.413333h-19.370667a85.333333 85.333333 0 0 1-85.333333-85.333334V284.586667a85.333333 85.333333 0 0 1 85.333333-85.333334" fill="#1971FD" p-id="1421"></path><path d="M275.242667 474.752h206.506666a31.402667 31.402667 0 1 1 0 62.805333H275.2a31.402667 31.402667 0 0 1 0-62.805333zM274.688 327.338667h292.906667a32.981333 32.981333 0 1 1 0 65.962666H274.688a32.981333 32.981333 0 1 1 0-65.962666z" fill="#FFFFFF" p-id="1422"></path></svg>