<?xml version="1.0" standalone="no"?><!DOCTYPE svg PUBLIC "-//W3C//DTD SVG 1.1//EN" "http://www.w3.org/Graphics/SVG/1.1/DTD/svg11.dtd"><svg t="1743171245809" class="icon" viewBox="0 0 1024 1024" version="1.1" xmlns="http://www.w3.org/2000/svg" p-id="1264" xmlns:xlink="http://www.w3.org/1999/xlink" width="200" height="200"><path d="M879.957333 563.882667l-139.050666 240.810666a103.808 103.808 0 0 1-89.898667 51.925334H372.992c-37.12 0-71.381333-19.797333-89.898667-51.925334l-139.050666-240.810666a103.808 103.808 0 0 1 0-103.765334L283.093333 219.306667a103.808 103.808 0 0 1 89.898667-51.925334h278.016c37.12 0 71.381333 19.797333 89.898667 51.925334l139.050666 240.810666c18.517333 32.085333 18.517333 71.68 0 103.765334z" fill="#1971FD" p-id="1265"></path><path d="M618.666667 512q0 5.248-0.469334 10.453333-0.512 5.205333-1.536 10.368-1.024 5.12-2.56 10.154667-1.536 4.992-3.541333 9.813333-2.005333 4.864-4.48 9.514667-2.474667 4.608-5.376 8.96t-6.229333 8.405333q-3.328 4.053333-7.04 7.765334-3.712 3.712-7.765334 7.04-4.053333 3.328-8.405333 6.229333-4.352 2.901333-8.96 5.376-4.650667 2.474667-9.472 4.48-4.864 2.005333-9.856 3.541333-5.034667 1.493333-10.154667 2.56-5.12 0.981333-10.368 1.493334-5.205333 0.512-10.453333 0.512t-10.453333-0.512q-5.205333-0.512-10.368-1.536-5.12-1.024-10.154667-2.56-4.992-1.493333-9.856-3.498667-4.821333-2.005333-9.472-4.48-4.608-2.474667-8.96-5.376t-8.405333-6.229333q-4.053333-3.328-7.765334-7.04-3.712-3.712-7.04-7.765334-3.328-4.053333-6.229333-8.405333-2.901333-4.352-5.376-8.96-2.474667-4.650667-4.48-9.472-2.005333-4.864-3.541333-9.856-1.536-5.034667-2.56-10.154667t-1.536-10.368Q405.333333 517.248 405.333333 512t0.512-10.453333q0.512-5.205333 1.536-10.368 1.024-5.12 2.56-10.154667t3.541334-9.856q2.005333-4.864 4.48-9.472 2.474667-4.608 5.376-8.96 2.901333-4.394667 6.229333-8.405333 3.328-4.053333 7.04-7.765334 3.712-3.712 7.765333-7.04 4.053333-3.328 8.405334-6.229333 4.352-2.944 8.96-5.376 4.650667-2.474667 9.472-4.48 4.864-2.005333 9.856-3.541333 5.034667-1.536 10.154666-2.56t10.368-1.536Q506.752 405.333333 512 405.333333t10.453333 0.512q5.205333 0.512 10.368 1.536 5.12 1.024 10.154667 2.56 4.992 1.536 9.856 3.541334 4.821333 2.005333 9.472 4.48 4.608 2.432 8.96 5.376 4.352 2.901333 8.405333 6.229333 4.053333 3.328 7.765334 7.04 3.712 3.712 7.04 7.765333 3.328 4.010667 6.229333 8.405334 2.901333 4.352 5.376 8.96 2.474667 4.608 4.48 9.472 2.005333 4.821333 3.541333 9.856 1.536 5.034667 2.56 10.154666t1.536 10.368q0.512 5.205333 0.512 10.453334z" fill="#FFFFFF" p-id="1266"></path></svg>