<?xml version="1.0" standalone="no"?><!DOCTYPE svg PUBLIC "-//W3C//DTD SVG 1.1//EN" "http://www.w3.org/Graphics/SVG/1.1/DTD/svg11.dtd"><svg t="1743171239682" class="icon" viewBox="0 0 1024 1024" version="1.1" xmlns="http://www.w3.org/2000/svg" p-id="1112" xmlns:xlink="http://www.w3.org/1999/xlink" width="200" height="200"><path d="M171.946667 850.048a42.666667 42.666667 0 0 0 42.666666 42.666667h597.333334a42.666667 42.666667 0 0 0 42.666666-42.666667v-362.88a42.666667 42.666667 0 0 0-14.464-32l-298.666666-262.997333a42.666667 42.666667 0 0 0-56.362667 0l-298.666667 262.954666a42.666667 42.666667 0 0 0-14.506666 32.042667v362.88z" fill="#B3CDFF" p-id="1113"></path><path d="M399.530667 892.714667h227.541333V664.32a42.666667 42.666667 0 0 0-42.666667-42.666667h-142.208a42.666667 42.666667 0 0 0-42.666666 42.666667v228.394667z" fill="#1971FD" p-id="1114"></path></svg>